<svg width="784" height="781" viewBox="0 0 784 781" fill="none" xmlns="http://www.w3.org/2000/svg">
<path d="M86.4782 259.87C22.2962 174.299 0 0 0 0H784L823 780.5C823 780.5 554.793 737.664 487.799 622.757C449.368 556.839 480.028 499.055 442.23 432.772C365.725 298.611 179.15 383.426 86.4782 259.87Z" fill="#F1EFFD"/>
<path opacity="0.9" d="M358.426 319.96L358.426 319.96C362.408 312.355 366.139 304.809 369.791 297.422C379.538 277.709 388.726 259.128 400.62 243.57C416.941 222.221 438.338 206.606 473.241 201.75L473.185 201.354L473.241 201.75C503.562 197.53 536.447 204.331 566.799 217.697C597.148 231.062 624.936 250.979 645.057 272.95L645.057 272.951C684.118 315.514 687.486 384.764 665.712 441.183C643.939 497.599 597.115 540.986 535.968 532.053C514.678 528.951 496.898 525.216 480.884 521.852C434.521 512.113 402.957 505.482 343.867 526.333C291.509 544.792 222.493 545.601 182.106 499.74C171.758 487.988 166.248 477.277 164.514 467.545C162.781 457.824 164.809 449.047 169.6 441.138C179.203 425.289 199.908 412.924 223.697 403.609C235.705 398.932 247.396 395.305 258.692 391.801C260.096 391.365 261.494 390.932 262.886 390.498C275.468 386.578 287.54 382.667 298.951 377.453C321.794 367.014 341.978 351.354 358.426 319.96Z" fill="#F1EFFD" stroke="#DAD5FA" stroke-width="0.8"/>
<path d="M433 682.641C576.919 682.641 693.588 675.829 693.588 667.427C693.588 659.024 576.919 652.212 433 652.212C289.081 652.212 172.412 659.024 172.412 667.427C172.412 675.829 289.081 682.641 433 682.641Z" fill="#F5F5F5"/>
<path d="M426.898 299.937C428.726 322.785 455.122 352.46 463.562 361.438C463.894 361.794 464.296 362.077 464.742 362.271C465.189 362.465 465.67 362.565 466.156 362.565C466.643 362.565 467.124 362.465 467.571 362.271C468.017 362.077 468.418 361.794 468.75 361.438C477.218 352.46 503.587 322.771 505.415 299.937C505.477 299.236 505.334 298.531 505.002 297.911C504.67 297.29 504.164 296.78 503.546 296.442L467.85 277.183C467.331 276.898 466.748 276.749 466.156 276.749C465.564 276.749 464.982 276.898 464.463 277.183L428.766 296.442C428.151 296.782 427.647 297.293 427.315 297.913C426.984 298.533 426.839 299.236 426.898 299.937Z" fill="#7665EE"/>
<path opacity="0.3" d="M463.509 352.783C452.757 340.687 437.166 320.352 433.444 304.17C433.274 303.418 433.35 302.632 433.66 301.926C433.969 301.22 434.496 300.631 435.164 300.246L464.382 283.446C464.925 283.136 465.539 282.973 466.163 282.973C466.788 282.973 467.402 283.136 467.944 283.446L497.163 300.192C497.848 300.585 498.385 301.193 498.691 301.922C498.997 302.65 499.055 303.459 498.856 304.224C495.147 320.433 479.61 340.687 468.804 352.836C468.469 353.208 468.058 353.504 467.6 353.705C467.141 353.906 466.645 354.008 466.144 354.003C465.644 353.998 465.15 353.886 464.696 353.676C464.241 353.466 463.837 353.161 463.509 352.783Z" fill="#7665EE"/>
<path opacity="0.3" d="M463.509 352.783C452.757 340.687 437.166 320.352 433.444 304.17C433.274 303.418 433.35 302.632 433.66 301.926C433.969 301.22 434.496 300.631 435.164 300.246L464.382 283.446C464.925 283.136 465.539 282.973 466.163 282.973C466.788 282.973 467.402 283.136 467.944 283.446L497.163 300.192C497.848 300.585 498.385 301.193 498.691 301.922C498.997 302.65 499.055 303.459 498.856 304.224C495.147 320.433 479.61 340.687 468.804 352.836C468.469 353.208 468.058 353.504 467.6 353.705C467.141 353.906 466.645 354.008 466.144 354.003C465.644 353.998 465.15 353.886 464.696 353.676C464.241 353.466 463.837 353.161 463.509 352.783Z" fill="white"/>
<path d="M462.178 328.255C461.913 328.255 461.651 328.203 461.407 328.102C461.162 328 460.94 327.851 460.754 327.663L450.794 317.664C450.438 317.282 450.245 316.776 450.254 316.254C450.263 315.732 450.475 315.233 450.844 314.864C451.213 314.495 451.712 314.283 452.234 314.274C452.756 314.265 453.262 314.459 453.644 314.815L462.178 323.336L482.338 303.243C482.718 302.869 483.23 302.659 483.763 302.659C484.296 302.659 484.808 302.869 485.187 303.243C485.376 303.429 485.526 303.651 485.628 303.895C485.73 304.14 485.783 304.402 485.783 304.667C485.783 304.933 485.73 305.195 485.628 305.439C485.526 305.684 485.376 305.906 485.187 306.092L463.683 327.596C463.491 327.803 463.258 327.969 462.999 328.082C462.74 328.196 462.461 328.254 462.178 328.255Z" fill="white"/>
<path d="M546.796 382.62H360.424C351.517 382.62 344.296 389.84 344.296 398.748V643.221C344.296 652.128 351.517 659.349 360.424 659.349H546.796C555.704 659.349 562.924 652.128 562.924 643.221V398.748C562.924 389.84 555.704 382.62 546.796 382.62Z" fill="#263238"/>
<path d="M559.349 382.62H372.977C364.07 382.62 356.849 389.84 356.849 398.748V643.221C356.849 652.128 364.07 659.349 372.977 659.349H559.349C568.257 659.349 575.477 652.128 575.477 643.221V398.748C575.477 389.84 568.257 382.62 559.349 382.62Z" fill="#7665EE"/>
<path d="M395.045 659.363H376.901C376.345 659.363 375.893 659.814 375.893 660.371V663.287C375.893 663.844 376.345 664.295 376.901 664.295H395.045C395.602 664.295 396.053 663.844 396.053 663.287V660.371C396.053 659.814 395.602 659.363 395.045 659.363Z" fill="#263238"/>
<path d="M555.412 659.363H537.268C536.711 659.363 536.26 659.814 536.26 660.371V663.287C536.26 663.844 536.711 664.295 537.268 664.295H555.412C555.968 664.295 556.42 663.844 556.42 663.287V660.371C556.42 659.814 555.968 659.363 555.412 659.363Z" fill="#263238"/>
<path opacity="0.2" d="M559.349 382.62H372.977C364.07 382.62 356.849 389.84 356.849 398.748V643.221C356.849 652.128 364.07 659.349 372.977 659.349H559.349C568.257 659.349 575.477 652.128 575.477 643.221V398.748C575.477 389.84 568.257 382.62 559.349 382.62Z" fill="black"/>
<g style="mix-blend-mode:color-dodge" opacity="0.4">
<path d="M537.388 627.443H394.924C393.293 627.439 391.729 626.789 390.576 625.636C389.422 624.482 388.772 622.919 388.769 621.287V420.709C388.769 419.075 389.417 417.508 390.571 416.351C391.725 415.195 393.291 414.543 394.924 414.54H537.388C539.022 414.543 540.588 415.195 541.742 416.351C542.896 417.508 543.544 419.075 543.544 420.709V621.287C543.54 622.919 542.891 624.482 541.737 625.636C540.583 626.789 539.02 627.439 537.388 627.443ZM394.924 415.212C393.469 415.215 392.074 415.796 391.046 416.826C390.018 417.857 389.441 419.253 389.441 420.709V621.287C389.441 622.007 389.583 622.72 389.858 623.386C390.134 624.051 390.538 624.655 391.047 625.164C391.556 625.674 392.161 626.078 392.826 626.353C393.491 626.629 394.204 626.771 394.924 626.771H537.388C538.843 626.771 540.237 626.193 541.266 625.164C542.294 624.136 542.872 622.741 542.872 621.287V420.709C542.872 419.253 542.295 417.857 541.267 416.826C540.239 415.796 538.844 415.215 537.388 415.212H394.924Z" fill="#E6E6E6"/>
</g>
<path d="M540.533 621.287V420.695C540.533 418.966 539.131 417.564 537.402 417.564H394.924C393.195 417.564 391.793 418.966 391.793 420.695V621.287C391.793 623.017 393.195 624.419 394.924 624.419H537.402C539.131 624.419 540.533 623.017 540.533 621.287Z" fill="#7665EE"/>
<path opacity="0.1" d="M540.533 621.287V420.695C540.533 418.966 539.131 417.564 537.402 417.564H394.924C393.195 417.564 391.793 418.966 391.793 420.695V621.287C391.793 623.017 393.195 624.419 394.924 624.419H537.402C539.131 624.419 540.533 623.017 540.533 621.287Z" fill="white"/>
<path d="M580.168 439.672H578.824V451.016H580.168V439.672Z" fill="#7665EE"/>
<path d="M580.168 398.747H578.824V427.724H580.168V398.747Z" fill="#7665EE"/>
<path opacity="0.1" d="M466.156 570.739C491.468 570.739 511.987 550.22 511.987 524.909C511.987 499.597 491.468 479.078 466.156 479.078C440.845 479.078 420.326 499.597 420.326 524.909C420.326 550.22 440.845 570.739 466.156 570.739Z" fill="black"/>
<path d="M466.156 456.849C472.34 456.849 477.352 451.836 477.352 445.653C477.352 439.47 472.34 434.458 466.156 434.458C459.973 434.458 454.961 439.47 454.961 445.653C454.961 451.836 459.973 456.849 466.156 456.849Z" fill="#7665EE"/>
<path opacity="0.6" d="M466.089 456.822C472.272 456.822 477.285 451.809 477.285 445.626C477.285 439.443 472.272 434.431 466.089 434.431C459.906 434.431 454.894 439.443 454.894 445.626C454.894 451.809 459.906 456.822 466.089 456.822Z" fill="white"/>
<path d="M466.157 454.497C464.407 454.497 462.698 453.978 461.243 453.006C459.789 452.034 458.656 450.653 457.986 449.037C457.317 447.421 457.142 445.643 457.483 443.928C457.824 442.212 458.666 440.637 459.903 439.4C461.14 438.163 462.716 437.321 464.431 436.979C466.147 436.638 467.925 436.813 469.541 437.483C471.157 438.152 472.538 439.286 473.51 440.74C474.481 442.194 475 443.904 475 445.653C474.996 447.997 474.064 450.245 472.406 451.902C470.748 453.56 468.501 454.493 466.157 454.497ZM466.157 437.482C464.54 437.482 462.96 437.961 461.617 438.859C460.273 439.757 459.226 441.033 458.607 442.526C457.989 444.019 457.827 445.662 458.142 447.247C458.457 448.832 459.236 450.288 460.378 451.431C461.521 452.574 462.977 453.352 464.562 453.668C466.147 453.983 467.79 453.821 469.284 453.203C470.777 452.584 472.053 451.537 472.951 450.193C473.849 448.849 474.328 447.269 474.328 445.653C474.324 443.487 473.462 441.411 471.931 439.879C470.399 438.347 468.323 437.485 466.157 437.482Z" fill="#7665EE"/>
<path d="M391.605 443.906H386.619C385.52 443.906 384.629 444.796 384.629 445.895V473.178C384.629 474.277 385.52 475.167 386.619 475.167H391.605C392.703 475.167 393.594 474.277 393.594 473.178V445.895C393.594 444.796 392.703 443.906 391.605 443.906Z" fill="#7665EE"/>
<path opacity="0.6" d="M391.605 443.906H386.619C385.52 443.906 384.629 444.796 384.629 445.895V473.178C384.629 474.277 385.52 475.167 386.619 475.167H391.605C392.703 475.167 393.594 474.277 393.594 473.178V445.895C393.594 444.796 392.703 443.906 391.605 443.906Z" fill="white"/>
<path d="M391.605 566.815H386.619C385.52 566.815 384.629 567.705 384.629 568.804V596.087C384.629 597.186 385.52 598.076 386.619 598.076H391.605C392.703 598.076 393.594 597.186 393.594 596.087V568.804C393.594 567.705 392.703 566.815 391.605 566.815Z" fill="#7665EE"/>
<path opacity="0.6" d="M391.605 566.815H386.619C385.52 566.815 384.629 567.705 384.629 568.804V596.087C384.629 597.186 385.52 598.076 386.619 598.076H391.605C392.703 598.076 393.594 597.186 393.594 596.087V568.804C393.594 567.705 392.703 566.815 391.605 566.815Z" fill="white"/>
<path d="M466.156 566.828C491.468 566.828 511.987 546.309 511.987 520.998C511.987 495.686 491.468 475.167 466.156 475.167C440.845 475.167 420.326 495.686 420.326 520.998C420.326 546.309 440.845 566.828 466.156 566.828Z" fill="#7665EE"/>
<path opacity="0.6" d="M466.156 566.828C491.468 566.828 511.987 546.309 511.987 520.998C511.987 495.686 491.468 475.167 466.156 475.167C440.845 475.167 420.326 495.686 420.326 520.998C420.326 546.309 440.845 566.828 466.156 566.828Z" fill="white"/>
<path d="M443.482 496.407L441.581 498.307L488.852 545.578L490.752 543.677L443.482 496.407Z" fill="#7665EE"/>
<path d="M488.852 496.407L441.581 543.677L443.482 545.578L490.752 498.307L488.852 496.407Z" fill="#7665EE"/>
<path opacity="0.2" d="M488.697 496.253L441.426 543.524L443.327 545.424L490.597 498.154L488.697 496.253Z" fill="black"/>
<path opacity="0.2" d="M443.336 496.263L441.436 498.163L488.706 545.434L490.607 543.533L443.336 496.263Z" fill="black"/>
<path d="M466.022 555.633C459.139 555.635 452.411 553.597 446.687 549.775C440.963 545.953 436.501 540.52 433.865 534.162C431.229 527.804 430.538 520.807 431.879 514.056C433.22 507.306 436.533 501.104 441.399 496.237C446.265 491.369 452.465 488.054 459.215 486.71C465.965 485.366 472.962 486.055 479.321 488.688C485.68 491.321 491.116 495.781 494.94 501.503C498.764 507.226 500.805 513.954 500.805 520.837C500.798 530.061 497.131 538.905 490.61 545.429C484.089 551.952 475.246 555.622 466.022 555.633ZM466.022 488.728C459.671 488.726 453.462 490.607 448.18 494.133C442.898 497.659 438.781 502.673 436.348 508.54C433.916 514.407 433.278 520.863 434.516 527.092C435.753 533.322 438.81 539.044 443.3 543.536C447.79 548.027 453.511 551.087 459.74 552.327C465.968 553.567 472.425 552.932 478.293 550.502C484.16 548.072 489.176 543.957 492.705 538.676C496.233 533.396 498.117 527.188 498.117 520.837C498.11 512.325 494.726 504.165 488.709 498.145C482.692 492.126 474.533 488.739 466.022 488.728Z" fill="#7665EE"/>
<path d="M476.304 531.131C481.988 525.447 481.988 516.231 476.304 510.546C470.62 504.862 461.404 504.862 455.719 510.546C450.035 516.231 450.035 525.447 455.719 531.131C461.404 536.815 470.62 536.815 476.304 531.131Z" fill="#7665EE"/>
<path opacity="0.2" d="M466.022 555.633C459.139 555.635 452.411 553.597 446.687 549.775C440.963 545.953 436.501 540.52 433.865 534.162C431.229 527.804 430.538 520.807 431.879 514.056C433.22 507.306 436.533 501.104 441.399 496.237C446.265 491.369 452.465 488.054 459.215 486.71C465.965 485.366 472.962 486.055 479.321 488.688C485.68 491.321 491.116 495.781 494.94 501.503C498.764 507.226 500.805 513.954 500.805 520.837C500.798 530.061 497.131 538.905 490.61 545.429C484.089 551.952 475.246 555.622 466.022 555.633ZM466.022 488.728C459.671 488.726 453.462 490.607 448.18 494.133C442.898 497.659 438.781 502.673 436.348 508.54C433.916 514.407 433.278 520.863 434.516 527.092C435.753 533.322 438.81 539.044 443.3 543.536C447.79 548.027 453.511 551.087 459.74 552.327C465.968 553.567 472.425 552.932 478.293 550.502C484.16 548.072 489.176 543.957 492.705 538.676C496.233 533.396 498.117 527.188 498.117 520.837C498.11 512.325 494.726 504.165 488.709 498.145C482.692 492.126 474.533 488.739 466.022 488.728Z" fill="black"/>
<path opacity="0.2" d="M476.304 531.131C481.988 525.447 481.988 516.231 476.304 510.546C470.62 504.862 461.404 504.862 455.719 510.546C450.035 516.231 450.035 525.447 455.719 531.131C461.404 536.815 470.62 536.815 476.304 531.131Z" fill="black"/>
<path d="M353.704 326.749C356.943 334.262 360.29 341.869 363.677 349.355C367.064 356.842 370.531 364.314 374.24 371.451C375.195 373.198 376.109 375.012 377.103 376.666L377.829 377.929L378.205 378.561C378.168 378.509 378.122 378.464 378.071 378.426C377.91 378.332 378.071 378.52 378.393 378.749C379.627 379.413 380.962 379.867 382.345 380.093C384.123 380.424 385.917 380.657 387.721 380.792C391.524 381.047 395.543 381.047 399.575 380.926L405.677 380.671L411.752 380.267L413.324 387.579C405.023 390.351 396.409 392.076 387.68 392.713C385.326 392.864 382.963 392.842 380.611 392.646C377.836 392.458 375.112 391.813 372.547 390.737C370.771 389.961 369.174 388.826 367.856 387.404C367.462 386.983 367.098 386.534 366.768 386.06L366.297 385.361L365.384 384.017C364.107 382.163 363.032 380.308 361.876 378.44C357.521 370.98 353.624 363.427 349.968 355.807C346.312 348.186 342.912 340.499 339.713 332.609L353.704 326.749Z" fill="#7F3E3B"/>
<path d="M335.856 325.728C332.805 334.652 350.734 360.9 350.734 360.9L367.91 351.385C364.994 343.197 361.55 335.205 357.602 327.462C351.54 316.105 339.202 315.93 335.856 325.728Z" fill="#7665EE"/>
<path opacity="0.5" d="M335.856 325.728C332.805 334.652 350.734 360.9 350.734 360.9L367.91 351.385C364.994 343.197 361.55 335.205 357.602 327.462C351.54 316.105 339.202 315.93 335.856 325.728Z" fill="white"/>
<path d="M335.6 326.843C339.444 325.002 343.879 326.548 348.53 333.913C353.18 341.278 357.158 353.576 357.602 357.083L350.734 360.887C350.734 360.887 334.176 336.641 335.6 326.843Z" fill="#7665EE"/>
<path opacity="0.4" d="M335.6 326.843C339.444 325.002 343.879 326.548 348.53 333.913C353.18 341.278 357.158 353.576 357.602 357.083L350.734 360.887C350.734 360.887 334.176 336.641 335.6 326.843Z" fill="white"/>
<path d="M347.455 318.9C347.455 318.9 360.249 348.993 351.016 405.024H297.74C297.081 396.839 300.845 356.936 291.611 318.39C297.469 317.249 303.395 316.495 309.352 316.132C316.895 315.701 324.456 315.701 331.999 316.132C337.214 316.659 342.381 317.585 347.455 318.9Z" fill="#7665EE"/>
<path opacity="0.5" d="M347.455 318.9C347.455 318.9 360.249 348.993 351.016 405.024H297.74C297.081 396.839 300.845 356.936 291.611 318.39C297.469 317.249 303.395 316.495 309.352 316.132C316.895 315.701 324.456 315.701 331.999 316.132C337.214 316.659 342.381 317.585 347.455 318.9Z" fill="white"/>
<path d="M303.519 327.905C304.621 334.249 303.156 349.409 297.713 366.962C297.287 351.923 295.537 336.952 292.485 322.22V322.14C295.979 321.79 302.457 321.951 303.519 327.905Z" fill="#7665EE"/>
<path opacity="0.4" d="M303.519 327.905C304.621 334.249 303.156 349.409 297.713 366.962C297.287 351.923 295.537 336.952 292.485 322.22V322.14C295.979 321.79 302.457 321.951 303.519 327.905Z" fill="white"/>
<path d="M278.857 643.759L286.759 650.828L301.799 635.171L293.896 628.101L278.857 643.759Z" fill="#7F3E3B"/>
<path d="M288.937 647.992L279.341 641.568C279.184 641.444 278.99 641.376 278.79 641.376C278.589 641.376 278.395 641.444 278.239 641.568L270.9 648.973C270.757 649.136 270.651 649.328 270.591 649.536C270.53 649.744 270.516 649.963 270.549 650.177C270.583 650.392 270.663 650.596 270.784 650.776C270.905 650.955 271.064 651.106 271.25 651.218C277.378 655.935 281.8 659.497 285.295 663.421C289.327 668.004 291.504 668.663 300.912 668.663C305.266 668.663 307.726 664.994 305.952 664.429C290.281 659.47 294.474 657.306 290.657 650.035C290.27 649.217 289.677 648.513 288.937 647.992Z" fill="#263238"/>
<path d="M301.785 635.171L294.044 643.248L286.141 636.165L293.883 628.101L301.785 635.171Z" fill="#5E2B2B"/>
<path d="M307.215 635.399H317.174L316.502 647.293H306.543L307.215 635.399Z" fill="#5E2B2B"/>
<path d="M351.016 405.024C351.016 405.024 361.513 477.681 365.088 517.221C367.964 548.953 299.353 643.557 299.353 643.557L286.087 631.071C286.087 631.071 336.192 546.251 332.334 510.931C328.612 476.726 315.938 404.984 315.938 404.984L351.016 405.024Z" fill="#7665EE"/>
<path opacity="0.5" d="M351.016 405.024C351.016 405.024 361.513 477.681 365.088 517.221C367.964 548.953 299.353 643.557 299.353 643.557L286.087 631.071C286.087 631.071 336.192 546.251 332.334 510.931C328.612 476.726 315.938 404.984 315.938 404.984L351.016 405.024Z" fill="black"/>
<path d="M305.911 658.462H315.884L317.174 635.399H307.215L305.911 658.462Z" fill="#7F3E3B"/>
<path d="M316.408 657.32H305.213C305.026 657.312 304.844 657.379 304.706 657.504C304.567 657.63 304.484 657.805 304.473 657.992L303.922 666.849C303.921 667.08 303.964 667.309 304.051 667.523C304.138 667.738 304.266 667.933 304.429 668.098C304.591 668.262 304.784 668.393 304.997 668.484C305.21 668.574 305.438 668.621 305.67 668.623C309.567 668.556 311.435 668.327 316.422 668.327C319.446 668.327 332.321 668.65 336.514 668.65C340.708 668.65 340.546 664.51 338.799 664.134C330.856 662.454 321.005 660.102 318.182 657.924C317.678 657.526 317.051 657.312 316.408 657.32Z" fill="#263238"/>
<path d="M409.655 380.724L418.808 377.096L421.039 386.504C421.039 386.504 410.596 389.622 408.943 386.611L409.655 380.724Z" fill="#7F3E3B"/>
<path d="M426.562 378.991L429.25 384.138L421.038 386.477L418.807 377.096L426.562 378.991Z" fill="#7F3E3B"/>
<path d="M334.203 316.32L332.025 316.092C324.483 315.661 316.922 315.661 309.379 316.092L308.035 316.172L308.156 316.535C308.263 316.817 310.763 323.47 325.104 323.47C331.353 323.47 334.619 322.435 335.372 320.191C335.526 319.499 335.499 318.78 335.294 318.102C335.089 317.424 334.713 316.811 334.203 316.32Z" fill="#E6E6E6"/>
<path d="M310.696 290.623C312.376 297.907 314.271 311.267 309.352 316.159C309.352 316.159 311.476 322.193 325.023 322.193C339.915 322.193 331.998 316.159 331.998 316.159C323.8 314.223 323.813 308.189 325.023 302.531L310.696 290.623Z" fill="#7F3E3B"/>
<path d="M316.569 295.475L325.05 302.49C324.745 303.815 324.556 305.164 324.486 306.522C321.367 306.079 316.986 302.665 316.543 299.412C316.305 298.11 316.314 296.774 316.569 295.475Z" fill="#5E2B2B"/>
<path d="M331.985 268.944C336.514 271.874 337.159 285.959 330.534 287.975C323.908 289.991 323.41 263.407 331.985 268.944Z" fill="#263238"/>
<path d="M307.551 282.989C310.589 292.397 311.879 298.082 318.007 301.939C319.985 303.21 322.271 303.916 324.621 303.981C326.97 304.045 329.292 303.467 331.337 302.307C333.381 301.147 335.069 299.451 336.218 297.401C337.368 295.351 337.935 293.025 337.858 290.676C337.737 281.631 332.791 267.707 322.375 265.96C320.131 265.527 317.811 265.691 315.65 266.436C313.488 267.181 311.56 268.481 310.059 270.205C308.558 271.93 307.536 274.018 307.096 276.262C306.656 278.505 306.813 280.825 307.551 282.989Z" fill="#7F3E3B"/>
<path d="M296.692 274.132C299.944 280.032 308.116 293.472 312.04 292.128C315.965 290.784 315.978 280.032 310.938 273.218C310.938 273.218 350.868 277.25 351.675 254.563C352.494 231.352 333.262 253.811 316.341 260.302C297.928 267.425 289.044 260.248 296.692 274.132Z" fill="#263238"/>
<path d="M298.399 265.907C298.323 265.891 298.254 265.85 298.205 265.79C298.156 265.73 298.129 265.655 298.129 265.577C298.129 265.5 298.156 265.425 298.205 265.365C298.254 265.305 298.323 265.263 298.399 265.248C299.003 265.114 299.662 264.993 300.374 264.858C305.729 263.984 310.95 262.431 315.911 260.235C320.951 257.977 326.233 254.106 330.91 250.692C333.881 248.424 336.977 246.324 340.183 244.403C340.263 244.363 340.354 244.355 340.438 244.38C340.523 244.405 340.595 244.461 340.64 244.537C340.662 244.576 340.675 244.618 340.68 244.662C340.685 244.706 340.681 244.751 340.668 244.793C340.656 244.836 340.635 244.875 340.607 244.91C340.579 244.944 340.545 244.973 340.506 244.994C337.322 246.902 334.249 248.989 331.3 251.243C326.609 254.671 321.287 258.555 316.18 260.853C311.176 263.069 305.91 264.637 300.509 265.517C299.796 265.651 299.165 265.772 298.533 265.907H298.399Z" fill="#263238"/>
<path d="M305.885 294.48C307.687 296.232 310.092 297.227 312.605 297.262C315.938 297.262 316.637 294.117 314.849 291.483C313.263 289.117 309.634 286.268 306.705 287.545C303.775 288.822 303.681 292.316 305.885 294.48Z" fill="#7F3E3B"/>
<path opacity="0.2" d="M332.348 510.971C330.426 493.352 326.125 465.746 322.429 443.14C324.365 439.35 329.794 431.675 329.794 431.675C334.66 448.489 345.237 511.872 330.144 597.471C314.419 622.819 299.366 643.597 299.366 643.597L297.256 610.911C311.839 583.574 335.023 535.392 332.348 510.971Z" fill="black"/>
<path d="M322.859 282.465C323.061 283.244 323.639 283.809 324.203 283.674C324.768 283.54 324.969 282.827 324.768 282.048C324.566 281.268 323.988 280.704 323.424 280.852C322.859 281 322.658 281.685 322.859 282.465Z" fill="#263238"/>
<path d="M331.73 280.516C331.931 281.295 332.509 281.86 333.074 281.725C333.638 281.591 333.84 280.892 333.638 280.113C333.437 279.333 332.872 278.769 332.294 278.903C331.716 279.037 331.528 279.736 331.73 280.516Z" fill="#263238"/>
<path d="M329.015 281.524C330.564 283.704 332.394 285.67 334.458 287.37C334.009 287.869 333.456 288.263 332.839 288.526C332.221 288.788 331.554 288.912 330.883 288.889L329.015 281.524Z" fill="#630F0F"/>
<path d="M327.496 291.725C325.859 291.741 324.271 291.169 323.021 290.112C322.999 290.091 322.981 290.065 322.969 290.037C322.956 290.009 322.95 289.979 322.949 289.949C322.948 289.918 322.954 289.888 322.965 289.859C322.976 289.831 322.993 289.805 323.014 289.783C323.035 289.761 323.06 289.743 323.088 289.731C323.116 289.718 323.147 289.712 323.177 289.711C323.208 289.71 323.238 289.716 323.267 289.727C323.295 289.738 323.321 289.755 323.343 289.776C324.13 290.415 325.051 290.868 326.038 291.101C327.025 291.334 328.052 291.34 329.042 291.12C329.072 291.113 329.103 291.112 329.133 291.117C329.164 291.122 329.193 291.133 329.219 291.149C329.245 291.165 329.268 291.186 329.286 291.211C329.304 291.236 329.317 291.265 329.324 291.295C329.331 291.325 329.332 291.356 329.327 291.386C329.322 291.417 329.311 291.446 329.295 291.472C329.279 291.498 329.258 291.521 329.233 291.539C329.208 291.557 329.179 291.57 329.149 291.577C328.605 291.688 328.051 291.737 327.496 291.725Z" fill="#263238"/>
<path d="M319.338 280.22C319.276 280.233 319.212 280.233 319.15 280.22C319.092 280.197 319.04 280.162 318.996 280.118C318.953 280.074 318.919 280.021 318.896 279.963C318.873 279.905 318.863 279.843 318.865 279.781C318.867 279.719 318.882 279.658 318.908 279.602C319.195 278.921 319.643 278.32 320.215 277.852C320.786 277.383 321.463 277.061 322.187 276.914C322.311 276.902 322.435 276.936 322.535 277.011C322.634 277.086 322.702 277.195 322.725 277.317C322.734 277.379 322.732 277.442 322.716 277.503C322.701 277.563 322.674 277.621 322.636 277.671C322.599 277.721 322.552 277.763 322.498 277.794C322.444 277.826 322.384 277.846 322.322 277.855C321.753 277.983 321.224 278.247 320.78 278.623C320.335 279 319.988 279.479 319.768 280.019C319.722 280.088 319.657 280.144 319.581 280.18C319.506 280.215 319.421 280.229 319.338 280.22Z" fill="#263238"/>
<path d="M334.727 276.659C334.657 276.659 334.588 276.644 334.525 276.613C334.462 276.583 334.407 276.539 334.364 276.484C333.986 276.014 333.507 275.634 332.963 275.374C332.418 275.113 331.822 274.978 331.219 274.979C331.095 274.986 330.973 274.946 330.877 274.866C330.782 274.786 330.722 274.672 330.708 274.548C330.701 274.424 330.741 274.302 330.821 274.207C330.901 274.112 331.015 274.051 331.138 274.038C331.894 274.022 332.643 274.18 333.328 274.5C334.013 274.819 334.615 275.291 335.09 275.879C335.168 275.978 335.205 276.103 335.193 276.229C335.18 276.354 335.119 276.47 335.022 276.551C334.939 276.62 334.835 276.658 334.727 276.659Z" fill="#263238"/>
<path d="M298.52 372.338C295.843 371.436 293.273 370.242 290.859 368.776C290.333 368.442 289.846 368.049 289.407 367.607C290.025 364.717 290.832 361.814 291.705 358.898C292.579 355.981 293.654 352.998 294.77 350.054C295.885 347.111 297.068 344.181 298.305 341.278C298.923 339.827 299.554 338.375 300.2 336.937L302.135 332.757L288.695 325.876C287.808 327.556 287.082 329.034 286.356 330.634C285.631 332.233 285.012 333.779 284.287 335.364C282.961 338.554 281.751 341.784 280.658 345.055C278.38 351.731 276.781 358.62 275.887 365.618V365.981V366.68C275.853 367.163 275.853 367.648 275.887 368.131C275.941 369.107 276.112 370.073 276.397 371.007C276.927 372.655 277.787 374.178 278.924 375.483C280.597 377.305 282.604 378.788 284.838 379.851C288.277 381.473 291.915 382.639 295.657 383.318C302.472 384.613 309.408 385.154 316.341 384.931L316.959 377.472C310.719 376.118 304.562 374.403 298.52 372.338Z" fill="#7F3E3B"/>
<path d="M319.943 659.04C319.037 659.019 318.136 658.902 317.255 658.691C317.214 658.677 317.178 658.654 317.147 658.623C317.117 658.593 317.094 658.556 317.08 658.516C317.074 658.473 317.079 658.429 317.096 658.389C317.112 658.348 317.14 658.313 317.174 658.287C317.497 658.059 320.319 656.137 321.529 656.621C321.666 656.673 321.788 656.76 321.882 656.873C321.976 656.986 322.039 657.121 322.066 657.266C322.125 657.482 322.129 657.71 322.078 657.928C322.026 658.147 321.92 658.349 321.771 658.516C321.246 658.907 320.596 659.094 319.943 659.04ZM317.9 658.368C319.688 658.717 321.018 658.664 321.489 658.207C321.585 658.091 321.651 657.952 321.679 657.804C321.707 657.656 321.697 657.503 321.65 657.36C321.638 657.289 321.608 657.223 321.563 657.166C321.519 657.11 321.461 657.066 321.394 657.037C320.682 656.755 318.908 657.696 317.9 658.368Z" fill="#7665EE"/>
<path d="M317.335 658.691C317.301 658.703 317.263 658.703 317.228 658.691C317.194 658.674 317.166 658.65 317.144 658.619C317.123 658.589 317.11 658.553 317.107 658.516C317.107 658.395 316.878 655.532 317.886 654.564C318.012 654.44 318.165 654.347 318.333 654.291C318.501 654.235 318.679 654.218 318.854 654.242C319.051 654.249 319.24 654.322 319.39 654.449C319.541 654.575 319.646 654.748 319.687 654.941C319.916 656.029 318.438 658.099 317.443 658.691H317.335ZM318.679 654.659C318.587 654.657 318.496 654.674 318.41 654.709C318.325 654.743 318.247 654.795 318.182 654.86C317.629 655.825 317.398 656.941 317.524 658.045C318.343 657.347 319.405 655.761 319.244 655.008C319.244 654.86 319.136 654.699 318.787 654.659H318.679Z" fill="#7665EE"/>
<path d="M295.401 653.382C293.624 653.109 291.927 652.453 290.429 651.46C290.385 651.439 290.349 651.403 290.33 651.359C290.31 651.315 290.307 651.264 290.321 651.218C290.334 651.172 290.36 651.131 290.396 651.1C290.432 651.069 290.476 651.049 290.523 651.043C291.06 651.043 295.778 650.694 296.665 651.769C296.744 651.857 296.8 651.963 296.825 652.079C296.851 652.194 296.847 652.314 296.813 652.427C296.771 652.612 296.686 652.784 296.565 652.929C296.443 653.074 296.288 653.188 296.114 653.261C295.885 653.343 295.644 653.384 295.401 653.382ZM291.302 651.446C293.466 652.643 295.173 653.167 295.939 652.79C296.05 652.745 296.148 652.674 296.225 652.583C296.303 652.492 296.357 652.383 296.383 652.266C296.406 652.225 296.419 652.179 296.419 652.132C296.419 652.085 296.406 652.038 296.383 651.997C295.832 651.46 293.224 651.366 291.302 651.446Z" fill="#7665EE"/>
<path d="M290.536 651.5C290.498 651.499 290.461 651.489 290.428 651.47C290.396 651.451 290.368 651.425 290.348 651.393C290.331 651.359 290.323 651.322 290.323 651.285C290.323 651.248 290.331 651.211 290.348 651.178C290.429 651.016 292.216 647.374 294.514 648.49C295.146 648.799 295.2 649.162 295.146 649.417C294.918 650.506 291.934 651.487 290.563 651.527L290.536 651.5ZM293.641 648.718C292.404 648.718 291.343 650.291 290.953 651.016C292.391 650.842 294.595 649.941 294.729 649.296C294.729 649.162 294.622 649.014 294.326 648.866C294.113 648.762 293.878 648.711 293.641 648.718Z" fill="#7665EE"/>
<path d="M315.414 377.364L323.599 375.12L324.714 385.455C324.714 385.455 316.65 387.875 314.647 383.641L315.414 377.364Z" fill="#7F3E3B"/>
<path d="M315.252 377.58C316.966 375.721 317.97 373.318 318.088 370.792L320.185 371.935C320.185 371.935 320.601 376.572 319.781 377.902C318.962 379.233 315.252 377.58 315.252 377.58Z" fill="#7F3E3B"/>
<path d="M327.429 376.141L326.932 385.455H324.714L323.585 375.12L327.429 376.141Z" fill="#7F3E3B"/>
<path d="M285.294 630.359L300.173 644.364L304.971 639.216L287.942 623.706L285.294 630.359Z" fill="#7665EE"/>
<path opacity="0.1" d="M285.294 630.359L300.173 644.364L304.971 639.216L287.942 623.706L285.294 630.359Z" fill="black"/>
<path d="M332.079 405.024C332.079 405.024 333.02 481.162 331.407 509.695C329.647 540.929 320.776 644.431 320.776 644.431H302.525C302.525 644.431 303.076 543.456 301.974 512.53C300.777 478.93 297.686 405.01 297.686 405.01L332.079 405.024Z" fill="#7665EE"/>
<path opacity="0.5" d="M332.079 405.024C332.079 405.024 333.02 481.162 331.407 509.695C329.647 540.929 320.776 644.431 320.776 644.431H302.525C302.525 644.431 303.076 543.456 301.974 512.53C300.777 478.93 297.686 405.01 297.686 405.01L332.079 405.024Z" fill="black"/>
<path d="M301.799 644.431H321.515L322.604 637.496L300.844 638.584L301.799 644.431Z" fill="#7665EE"/>
<path opacity="0.1" d="M301.799 644.431H321.515L322.604 637.496L300.844 638.584L301.799 644.431Z" fill="black"/>
<path d="M291.611 318.39C282.203 319.734 272.567 354.288 272.567 354.288L295.24 362.916C295.24 362.916 300.939 348.132 304.836 336.534C308.922 324.451 301.678 316.911 291.611 318.39Z" fill="#7665EE"/>
<path opacity="0.5" d="M291.611 318.39C282.203 319.734 272.567 354.288 272.567 354.288L295.24 362.916C295.24 362.916 300.939 348.132 304.836 336.534C308.922 324.451 301.678 316.911 291.611 318.39Z" fill="white"/>
</svg>
