<svg width="20" height="20" viewBox="0 0 20 20" fill="none" xmlns="http://www.w3.org/2000/svg">
<path d="M8.33342 15C9.87175 15 11.2859 14.4709 12.4142 13.5934L16.0776 17.2567L17.2559 16.0784L13.5926 12.415C14.4709 11.2859 15.0001 9.87169 15.0001 8.33335C15.0001 4.65752 12.0092 1.66669 8.33342 1.66669C4.65758 1.66669 1.66675 4.65752 1.66675 8.33335C1.66675 12.0092 4.65758 15 8.33342 15ZM8.33342 3.33335C11.0909 3.33335 13.3334 5.57585 13.3334 8.33335C13.3334 11.0909 11.0909 13.3334 8.33342 13.3334C5.57591 13.3334 3.33341 11.0909 3.33341 8.33335C3.33341 5.57585 5.57591 3.33335 8.33342 3.33335Z" fill="url(#paint0_linear_35_292)"/>
<defs>
<linearGradient id="paint0_linear_35_292" x1="9.46133" y1="1.66669" x2="9.46133" y2="17.2567" gradientUnits="userSpaceOnUse">
<stop stop-color="#332885"/>
<stop offset="1" stop-color="#7F8FD7"/>
</linearGradient>
</defs>
</svg>
